<?xml version="1.0" encoding="UTF-8" standalone="no"?>
<!-- Created with Inkscape (http://www.inkscape.org/) -->

<svg
   xmlns:dc="http://purl.org/dc/elements/1.1/"
   xmlns:cc="http://creativecommons.org/ns#"
   xmlns:rdf="http://www.w3.org/1999/02/22-rdf-syntax-ns#"
   xmlns:svg="http://www.w3.org/2000/svg"
   xmlns="http://www.w3.org/2000/svg"
   xmlns:sodipodi="http://sodipodi.sourceforge.net/DTD/sodipodi-0.dtd"
   xmlns:inkscape="http://www.inkscape.org/namespaces/inkscape"
   width="900"
   height="900"
   id="svg3854"
   version="1.1"
   inkscape:version="0.91 r13725"
   sodipodi:docname="Antique Candlestick Telephone 1911.svg"
   viewBox="0 0 900 900">
  <defs
     id="defs3856" />
  <sodipodi:namedview
     id="base"
     pagecolor="#ffffff"
     bordercolor="#666666"
     borderopacity="1.0"
     inkscape:pageopacity="0.0"
     inkscape:pageshadow="2"
     inkscape:zoom="0.60111111"
     inkscape:cx="453.32717"
     inkscape:cy="450"
     inkscape:document-units="px"
     inkscape:current-layer="layer1"
     showgrid="false"
     inkscape:window-width="1366"
     inkscape:window-height="716"
     inkscape:window-x="-8"
     inkscape:window-y="-8"
     inkscape:window-maximized="1"
     units="in"
     inkscape:snap-global="false" />
  <metadata
     id="metadata3859">
    <rdf:RDF>
      <cc:Work
         rdf:about="">
        <dc:format>image/svg+xml</dc:format>
        <dc:type
           rdf:resource="http://purl.org/dc/dcmitype/StillImage" />
        <dc:title></dc:title>
      </cc:Work>
    </rdf:RDF>
  </metadata>
  <g
     inkscape:label="Layer 1"
     inkscape:groupmode="layer"
     id="layer1"
     transform="translate(0,-152.359)">
    <path
       style="opacity:1;fill:#000000;fill-opacity:1"
       d="m 617.17961,202.23989 -11.72266,8.83985 c -6.30608,4.75551 -15.56416,0.44107 -23.26758,1.15039 -18.27638,1.68286 -40.249,-0.76571 -59.78906,13.08984 -7.36556,5.2228 -13.04774,12.54366 -20.01562,18.28516 -12.15427,10.01507 -18.89204,24.85784 -22.27149,39.93945 -2.3205,10.35579 -1.95684,20.99234 -0.0566,31.36328 1.68417,9.19201 6.72472,19.54863 1.70508,28.21485 -4.06436,7.01696 -8.07263,14.05497 -10.0957,21.85937 -1.6223,6.25833 -3.78796,12.69473 -8.59961,17.16406 -6.2487,5.80413 -10.87683,12.95078 -16.25391,19.48828 -21.57953,26.20002 -36.20396,52.84969 -30.75,89.73047 2.2464,9.67295 9.03562,17.14501 16.56055,23.20899 9.26644,7.46738 21.35815,9.14109 32.8457,8.47265 6.6111,-0.38469 14.40302,-4.61083 19.95703,-0.125 5.38816,4.35188 1.08162,12.51752 1.37891,18.66211 0.49685,10.26902 -8.09649,19.34819 -17.62695,20.57813 -11.86514,1.53123 -23.93168,0.88266 -35.86329,0.16015 -7.7302,-0.46809 -16.05085,2.96935 -23.09765,-1.06054 -4.78301,-2.73529 -4.63201,-9.48904 -4.15625,-14.46094 0.44732,-4.67475 0.79955,-9.95168 -3.85156,-13.03711 -5.47129,-3.62952 -11.97739,2.95978 -16.64258,-1.65039 -4.60392,-4.54962 -2.18827,-11.36198 -1.91602,-16.99609 0.30607,-6.33392 -6.04533,-9.20737 -11.71289,-8.17578 -6.27186,1.14157 -14.9829,2.08137 -15.67187,9.63867 -0.439,4.81538 -3.11125,16.11366 -9.07032,10.83789 -5.07577,-4.49376 -0.57894,-12.38362 -3.59961,-18.04492 -4.07773,-7.64244 -16.62368,-5.6105 -19.35742,1.7539 -2.11822,5.70624 1.98144,14.71397 -5.15234,18 -4.84071,2.22977 -10.61565,1.01292 -15.82227,0.46875 -19.1445,-2.00091 -38.43896,-3.03185 -57.68554,-1.03125 -7.13035,0.74117 -8.80761,8.16245 -10.12891,14.14063 -2.37466,10.74406 -5.96016,21.16143 -7.8125,31.99414 -26.04341,159.57755 -86.42338,360.15894 127.52148,419.39843 17.05635,1.56019 33.90304,4.73938 50.9375,6.40239 75.61307,6.471 166.92367,-3.43815 211.90235,3.1035 44.97867,6.5417 52.93728,5.6245 60.83008,4.8223 6.42926,-0.6535 14.1305,2.0295 19.26562,-2.5215 4.89038,-4.3341 0.62013,-9.80836 1.43945,-15.57036 0.97959,-6.88911 0.23326,-13.77255 -1.66796,-20.43359 -1.67513,-5.86889 -4.46104,-12.54327 -10.68946,-14.29102 -13.52006,-3.79384 -26.69025,-8.75289 -39.10547,-15.42382 -10.27068,-15.75571 -23.59795,-16.50881 -35.38672,-23.50782 -5.65169,-6.49093 -13.73031,-11.54425 -16.35742,-20.04687 -2.42864,-7.86028 3.69408,-14.8005 6.66016,-21.69141 2.95938,-6.87536 -2.40116,-14.21394 0.33008,-20.7539 6.23229,-14.92323 22.91144,-9.30067 27.61718,-42.93164 5.99028,-42.81134 -48.44644,-87.38166 -40.66992,-97.81836 5.35083,-3.73194 13.06666,-4.61962 16.45703,-10.72071 3.26841,-5.88162 -2.36487,-11.73106 -1.74804,-17.66211 0.69783,-6.70992 8.90987,-9.54272 14.42578,-11.79297 19.29068,-6.21509 25.23839,-29.81124 9.01172,-43.44335 -7.35096,-4.92851 -16.95628,0.74237 -23.87696,-4.16993 -9.53105,-6.76514 -15.49547,-18.09797 -17.45507,-29.66015 -1.26896,-7.48723 -2.01562,-17.3455 4.72656,-22.23828 6.77312,-4.91523 19.34101,-4.84478 25.68359,-10.79102 7.70347,-7.22208 6.79985,-18.47849 8.10352,-28.1875 0.86542,-6.44518 0.10916,-13.13225 -4.51758,-17.91797 -7.66698,-7.93042 -21.7444,-11.76996 -28.02539,-20.95703 -4.41381,-6.45599 5.17762,-14.10876 2.11523,-20.79102 -3.73085,-8.14087 -10.43146,-20.37707 -3.28711,-26.4121 5.20258,-4.39477 6.12748,-9.47385 3.43164,-17.50782 -1.92989,-5.75133 9.2127,-5.70655 14.2754,-5.25 71.65855,-9.83614 81.00433,-57.89696 73.45898,-90.01172 -2.8148,-8.53147 -2.1502,-17.96147 2.41211,-25.43164 19.92762,-33.44004 17.94109,-67.59159 -14.92383,-99.75 -15.33354,-15.0039 -37.08026,-20.4266 -53.3516,-8.5 z M 571.7675,228.0895 c 4.11925,0.0515 8.22059,0.54176 12.23047,1.61719 5.8884,1.57924 7.88364,8.88174 5.23242,13.94531 -2.74898,5.25029 -9.169,5.69877 -14.27734,6.5293 -26.00287,4.17269 -42.7839,21.14174 -40.875,48.65625 1.39954,13.92737 5.4667,28.51181 15.24609,38.84961 13.26193,14.01919 31.45948,23.16752 50.53711,26.75391 19.82997,3.72781 40.41037,-12.38187 41.42969,-32.3125 0.27741,-5.4242 0.13533,-13.12084 6.08984,-15.23047 4.88008,-1.72897 10.97768,-1.04605 15.35352,2.03711 4.76863,3.35991 4.07729,10.0498 5.07421,15.18359 2.00133,10.30613 0.41672,21.19515 -4.28906,30.43359 -3.40035,6.67561 -8.02393,13.54417 -14.82812,17.10352 -13.73666,7.18581 -33.80066,19.59544 -68.59375,6.99023 -28.23332,-10.20839 -46.55991,-25.00387 -60.60742,-54.81054 -4.7933,-9.07225 -5.80286,-19.22484 -8.07227,-28.98438 -3.66819,-15.77499 1.04324,-31.88126 6.78516,-46.52539 5.52225,-14.0839 18.76197,-23.90257 33.16992,-27.52734 6.61504,-1.66422 13.52911,-2.79489 20.39453,-2.70899 z m 33.58594,16.20117 c 0.69039,-0.0743 1.22664,0.81115 1.38476,3.18555 0.52816,7.93113 7.40812,14.48331 4.39063,22.26953 -0.71293,1.83962 -3.61728,2.15568 -5.10938,1.07227 -5.48531,-3.98288 -6.00057,-11.73685 -5.05468,-17.71875 0.60618,-3.83363 2.8698,-8.64511 4.38867,-8.8086 z m -27.67188,14.50586 c 5.84215,-0.2013 8.93468,6.66039 3.97461,10.83985 -5.69922,4.80229 -14.48207,2.66455 -19.10937,8.47851 -10.5098,14.06542 -0.63677,43.70237 15.13867,55.65821 12.96717,8.46474 20.62518,15.35546 3.44336,12.74414 -21.73991,-3.30406 -56.4434,-60.65217 -19.10938,-81.1211 4.69553,-2.39317 9.1439,-5.4415 14.45899,-6.46093 0.41235,-0.0791 0.81365,-0.12526 1.20312,-0.13868 z m -77.71094,5.40625 c 2.45378,-0.25083 3.10344,6.83745 2.35938,10.44922 -8.35513,40.55691 11.15509,84.0061 42.87891,110.82422 7.27557,6.1505 17.11401,8.43537 23.2207,15.72656 0.538,0.64236 -0.92887,1.51173 -1.7207,1.54493 -5.80581,0.24318 -11.16964,-2.83471 -16.70118,-4.29883 -5.93146,-1.56998 -10.46455,-6.15946 -15.57812,-9.33985 -27.09781,-17.38347 -43.78051,-63.97128 -43.14258,-99.49804 1.34343,-7.87077 1.63896,-16.45649 6.18945,-23.23438 0.97894,-1.45811 1.80709,-2.10359 2.49414,-2.17383 z m 117.14844,13.38086 c 5.89485,0.16721 11.24766,7.66494 11.72266,13.93164 0.41731,5.50558 -6.68754,1.58462 -8.0586,-1.4082 -1.78863,-3.90429 -11.80322,-11.46517 -4.84961,-12.45703 0.39652,-0.0566 0.79256,-0.0776 1.18555,-0.0664 z m 11.58985,46.22657 c 1.96686,-0.0997 3.47536,1.01662 3.34179,3.97265 -0.35981,7.96335 -2.47333,17.11083 -9.16015,22.21289 -3.88373,2.96329 -9.36118,1.99031 -14.16407,2.58399 -6.23336,0.7705 -9.42214,-9.67096 -2.29101,-9.48438 6.93509,0.18146 13.58928,-5.28492 14.11133,-11.56055 0.33411,-4.01644 4.88399,-7.55845 8.16211,-7.7246 z m -135.9961,32.33203 c 1.31192,-0.0269 2.58269,0.66582 3.58008,2.38086 3.71206,6.38297 -2.93146,13.64485 -2.91406,20.59765 0.005,2.17281 -1.11054,5.50381 -3.45703,4.69727 -6.21953,-2.13779 -2.37236,-11.1592 -3.9375,-16.16797 -1.52157,-4.86935 2.79277,-11.42717 6.72851,-11.50781 z m 16.57617,34.91797 c 3.57617,0.14898 7.21676,2.08731 7.03907,5.47656 -0.31632,6.03335 -13.00464,5.78351 -13.69336,-0.21485 -0.43291,-3.77034 3.07813,-5.4107 6.65429,-5.26171 z m -28.03515,15.40234 c 10.30762,-0.11804 19.9911,7.41581 30.48633,7.13086 5.36443,-0.14565 11.60084,2.80086 11.89257,8.36719 0.6087,11.61444 3.47172,23.91164 -0.88281,34.98437 -4.94773,12.58111 -16.11947,21.44075 -27.07422,29.44531 -5.21127,3.80784 -10.39618,7.49171 -16.64843,8.70703 -3.97312,0.7723 -7.89703,1.79371 -11.95118,2.08008 -8.49837,0.60028 -18.27933,-4.36478 -19.51172,-13.00781 -2.99405,-20.998 -4.42414,-29.27352 11.84766,-58.99609 4.34217,-7.93155 9.02465,-16.06393 17.38281,-18.14649 1.50216,-0.37428 2.98647,-0.54759 4.45899,-0.56445 z m 65.6914,3.52539 c 0.90255,-0.0176 1.88171,0.23 2.9375,0.80859 6.19626,3.39568 14.40631,3.14215 18.66211,8.74219 3.68625,4.85059 1.90473,11.8924 1.42188,17.81641 -0.62266,7.63933 3.43299,14.56837 1.03906,22.53125 -1.63364,5.43396 -8.78062,5.96272 -10.38086,1.4414 -2.00216,-5.65689 1.13216,-11.65907 0.46485,-17.58007 -0.72001,-6.38849 -7.40128,-8.07333 -12.72461,-6.92188 -7.78125,1.68311 -9.69382,-7.19404 -9.27149,-13.65625 0.34349,-5.25589 2.97781,-13.08687 7.85156,-13.18164 z m 5.99414,70.04102 c 7.66687,0.10778 9.70879,12.06743 4.47071,17.31054 -1.99097,1.99283 -4.96671,3.11857 -7.55078,1.91407 -8.19609,-3.82041 -5.85648,-19.35024 3.08007,-19.22461 z m 23.02735,3.49414 c 0.41925,0.0339 0.87676,0.20054 1.36719,0.52734 2.70114,1.79993 2.20725,8.28263 -1.125,9.44336 -4.91236,1.71114 -4.29491,-10.2986 -0.24219,-9.9707 z m -50.0293,17.41015 c 2.61818,-0.13611 4.78167,0.86297 4.33985,3.71485 -1.14772,7.40808 -7.9494,12.87681 -13.82227,17.3789 -5.08487,3.89801 -6.60217,10.29734 -5.56641,16.36524 1.0085,5.90817 2.25596,13.86078 -3.13476,17.91601 -3.97516,2.99035 -9.75843,-1.29931 -10.90821,-5.57617 -2.56402,-9.53741 4.19501,-18.20984 7.37305,-26.83984 1.46238,-3.97111 2.802,-8.08572 5.9336,-11.10547 2.99047,-2.88367 6.09725,-5.52888 8.71679,-8.75196 1.3766,-1.69375 4.45018,-2.96544 7.06836,-3.10156 z m 23.57617,10.11914 c 4.29568,0.0159 8.76532,0.70826 12.9336,0.82422 6.26499,0.17429 11.93649,10.21872 4.73242,12.13672 -7.12734,1.89757 -14.67322,1.23314 -22.03125,2.01758 -6.2721,0.66867 -12.85864,-7.76561 -7.52149,-11.7461 3.46926,-2.58739 7.59105,-3.24835 11.88672,-3.23242 z m 39.30664,0.51368 c 4.6679,0.15812 9.94681,6.12316 8.1836,11.18359 -0.19733,0.56634 -0.64836,1.05599 -1.17969,1.33203 -6.22921,3.23627 -16.02004,-7.28935 -10.04492,-11.61523 0.91794,-0.66458 1.96381,-0.93689 3.04101,-0.90039 z m -219.80468,9.66015 c 0.87751,-0.047 1.64577,0.63898 1.91406,2.58203 0.20951,1.51732 -0.7687,3.16347 -2.28906,3.39453 -5.88115,0.89379 -2.25755,-5.83539 0.375,-5.97656 z m 232.4082,12.27735 c 1.11551,-0.0396 2.29794,0.48954 3.5,1.80468 4.48498,4.90691 5.31377,14.92904 -0.47852,19.4375 0,0 -0.40432,0.33833 -0.62304,0.48438 -0.21749,0.14523 -0.68164,0.38672 -0.68164,0.38672 -5.84874,3.31857 -8.78318,-4.48704 -8.80078,-9.89454 -0.0153,-4.68739 3.1,-12.07723 7.08398,-12.21874 z m -70.24024,1.39453 c 4.41923,-0.11521 9.3807,2.24665 13.90235,2.69921 11.44074,1.14509 23.45861,-1.38317 34.35937,2.47266 6.38616,2.25892 8.03892,11.87246 5.09375,17.31836 -3.29192,6.08708 -12.03955,3.90993 -18.18945,4.47852 -9.51238,0.87947 -19.07596,1.15892 -28.63476,1.23632 -6.19836,0.0502 -15.20109,0.67571 -17.63672,-6.00195 -2.71814,-7.45222 0.50088,-17.44669 6.90234,-21.09961 1.31584,-0.75087 2.73005,-1.06511 4.20312,-1.10351 z m -212.38085,17.31836 c 0.95,0.0382 1.88086,0.78892 2.54492,2.68554 0.68579,1.9587 -0.49897,3.88382 -2.24805,4.31446 -7.33378,1.80564 -3.68973,-7.13646 -0.29687,-7 z m -51.04883,0.46289 c 9.65054,-0.11457 24.39462,6.67684 31.69531,7.17187 2.46063,5.9333 12.77884,17.82114 6.46094,65.54688 -5.57298,42.09863 -11.30439,90.40665 -14.24024,136.56836 -0.72773,6.69387 -3.37862,14.50059 -10.14843,16.50585 -6.81043,2.0173 -15.08659,3.58897 -18.54102,10.23047 -9.81844,19.35152 -9.96365,46.2338 13.50586,58.28516 7.27016,6.50445 8.9411,17.23933 15.83008,24.25195 8.03383,7.731 42.42536,11.50647 57.58008,12.08203 13.30673,-0.95464 27.39826,-1.39464 39.2871,-8.3125 5.75088,-3.34631 10.24106,-8.42625 12.7461,-14.51562 2.43512,-5.91942 8.30013,-8.88112 12.9707,-12.70508 11.14487,-9.12471 20.9895,-21.60198 22.41016,-36.53125 1.0035,-10.54543 -6.75814,-18.76074 -13.83008,-25.54101 -6.04545,-5.79611 -16.25052,-8.78833 -17.93164,-17.51563 -8.49471,-47.94953 -4.62552,-100.70513 -9.80274,-152.30859 0.3746,-9.59635 6.39141,-19.66944 14.95118,-21.45899 25.90508,-5.41585 52.86497,0.19899 79.15625,2.86914 5.15866,0.52392 14.16558,1.93106 12.9414,8.30469 -1.35632,7.0616 -7.33088,12.37576 -12.89648,16.94922 -5.57593,4.58194 -13.2196,3.79457 -19.14063,7.3125 -9.1801,5.45428 -9.56688,18.26137 -6.26172,27.61328 2.21641,6.27126 8.195,9.43091 13.84376,11.60742 6.67327,2.57127 11.29039,8.34755 13.76367,14.94531 2.27139,6.05921 2.53439,12.91331 6.57226,18.19532 3.15595,4.12835 7.67346,8.88606 5.64844,14.64062 -5.09433,14.47674 -13.77854,27.36485 -23.95898,38.66211 -7.01637,7.78609 -12.49432,17.00269 -14.84766,27.22656 -3.59627,15.62368 -3.37586,32.53253 3.10351,47.48438 3.31597,7.65194 8.64921,13.95711 13.0879,20.87695 4.37648,6.82286 1.22859,15.43052 4.62109,22.38086 2.93706,6.01725 8.12388,13.1635 4.33984,19.64844 -6.93235,11.8804 -19.41948,15.88491 -27.70117,30.25586 -5.97241,5.63306 -12.32258,11.231 -20.22266,13.80078 -12.53012,4.07587 -25.4579,7.72252 -38.64648,8.2832 -10.24703,0.43563 -17.98624,7.40066 -25.16406,13.6543 -2.59356,2.25962 -6.2132,3.02521 -9.54492,3.13086 -71.00536,-4.32142 -127.8013,-53.22238 -141.2452,-123.87553 -16.94282,-89.0414 12.09299,-159.00875 25.86434,-266.39986 1.38202,-6.32861 1.94541,-14.15921 8.03125,-17.97656 1.53039,-0.92434 3.48584,-1.31732 5.71289,-1.34375 z m 115.12695,1.46484 c 1.97791,0.0353 3.44803,1.34645 3.20117,4.62305 -0.64639,8.57947 -11.07798,15.07099 -18.48828,11.70312 -4.98577,-2.26596 -14.28335,-2.93826 -11.52344,4.36524 2.8569,7.56016 11.33761,12.57632 19.5625,12.78906 7.12949,0.1844 13.27555,-3.84838 18.28907,-8.41602 4.55638,-4.15115 10.69293,-5.25786 16.61914,-5.45507 33.76633,-1.12364 67.57519,-2.15432 101.36133,-1.0293 7.22377,0.24054 8.95038,13.40778 1.95703,14.25586 -12.08092,1.46505 -24.35807,0.11392 -36.49414,-0.76953 -19.84038,-1.44429 -39.53435,-3.8595 -59.45118,-5.48243 -8.72215,-0.71073 -15.75841,7.1249 -23.09375,11.63282 -6.53487,4.016 -14.81564,9.65331 -22.45703,6.03906 -5.53077,-2.61596 -12.07559,-2.0067 -16.87695,-5.78125 -5.46632,-4.2973 -6.32949,-12.16615 -6.50195,-18.78906 -0.13185,-5.06325 -0.22419,-15.67607 6.58398,-14.25586 7.26487,1.51548 15.85541,2.92822 21.0625,-2.39844 1.78505,-1.82603 4.27209,-3.06659 6.25,-3.03125 z m 172.43945,19.23438 c 3.23415,0.0556 6.79045,1.07882 9.9336,0.64062 5.17552,-0.72154 10.08663,2.12297 10.24023,7.59766 0.29725,10.59465 0.011,21.54413 3.91602,31.65234 1.82825,4.73245 9.56345,9.60745 4.7207,14.84375 -1.16628,1.26106 -2.9288,1.29352 -4.56836,1.40234 -14.35772,0.95291 -28.7722,0.19169 -43.14453,-0.26367 -6.46757,-0.20491 -13.00143,-0.61424 -19.41992,0.10547 -4.46068,0.50018 -12.08031,-5.81454 -7.04297,-9.08008 5.69586,-3.69243 13.34255,-1.93329 20.07031,-2.2207 5.8142,-0.24838 12.29495,1.81656 17.46094,-1.35547 7.11274,-4.36738 -6.45067,-11.12863 -1.51172,-16.20703 3.7298,-3.83512 1.64614,-6.94072 -0.70898,-10.63086 -2.97401,-4.65986 0.69849,-11.91644 4.73828,-15.01367 1.55111,-1.18921 3.37592,-1.50408 5.3164,-1.4707 z m -60.0625,67.55273 c 7.29694,-0.0794 14.65839,0.43406 21.93946,0.40625 29.3343,-0.11197 58.68699,1.97348 87.99414,0.72266 6.3833,-0.27244 13.95704,3.11837 13.93164,9.92773 -0.0254,6.81498 -8.65678,8.8509 -14.37305,6.87891 -6.05942,-2.09037 -12.53983,0.20252 -18.98047,-0.4375 -24.27009,-2.41178 -48.75071,-1.27048 -73.14062,-1.42578 -9.72931,-0.0619 -19.66148,2.67116 -29.22071,-1.27149 -5.79424,-2.3898 -7.77123,-12.66848 -1.18359,-13.77148 4.30031,-0.72003 8.65504,-0.98168 13.0332,-1.0293 z m 20.56641,27.55078 c 0.35059,-0.0141 0.69787,-0.0146 1.03906,0 19.45934,0.83365 38.92092,0.55459 58.38672,0.49609 4.72578,-0.0142 16.0886,-0.0192 12.21289,6.94727 -1.23686,2.2232 -3.58396,3.72326 -6.22851,3.69336 -18.17183,-0.20562 -36.41841,1.31998 -54.57813,0.18164 -5.76448,-0.36135 -12.47869,1.47249 -17.16601,-3.04687 -4.85974,-4.68562 1.07511,-8.06051 6.33398,-8.27149 z m 59.46289,21.92188 c 5.55334,0.0122 13.50004,2.33285 11.44531,8.81445 -0.08,0.25229 -0.47368,0.26633 -0.73633,0.29883 -16.01707,1.98452 -32.2713,2.3863 -48.375,1.57031 -7.00443,-0.35492 -14.58069,2.99991 -20.8457,-0.82617 -5.38056,-3.28594 1.10223,-9.65039 6.93946,-9.05664 16.75318,1.70411 33.69032,0.15929 50.49804,-0.77344 0.34528,-0.0192 0.704,-0.0282 1.07422,-0.0273 z m -36.04297,21.26953 c 5.57046,0.14362 11.17087,2.13398 16.78125,2.10351 6.44401,-0.035 13.54706,2.45598 16.13477,8.35157 7.77285,17.70897 19.97825,32.70796 29.96679,49.05859 7.32083,11.98376 12.68386,26.48842 9.08399,40.47265 -3.24442,12.60344 -9.28406,27.55862 -22.29883,31.57813 -13.8023,4.26274 -28.78054,0.63471 -43.14062,1.48437 -6.31533,0.37364 -13.02854,-3.89393 -18.54883,0.29493 -1.53645,1.16588 -3.23299,2.46578 -5.11719,2.14062 -6.23676,-1.07627 -12.5814,-2.13991 -18.84766,-1.44726 -6.3538,0.70233 -12.35666,-10.41004 -4.42578,-11.36914 6.80867,-0.82339 13.9627,-0.73912 20.60742,1.07812 6.46977,1.7694 12.93763,-5.15745 7.44922,-10.95508 -3.92313,-4.14415 1.39584,-13.81519 -5.15234,-15.82031 -6.11382,-1.87211 -12.65849,-0.3374 -19.02539,-1.27734 -5.4109,-0.7988 -8.97367,-8.02008 -2.05859,-9.82227 6.59268,-1.71816 12.87658,0.50523 19.32421,0.21094 5.99893,-0.27381 6.04701,-7.94239 -0.13086,-8.07617 -4.77358,-0.10337 -13.48967,1.70775 -14.08398,-4.47071 -0.49017,-5.0958 8.21539,-4.59425 12.20313,-3.51367 5.37049,1.45528 12.14971,-6.81765 7.17968,-10.82031 -3.95582,-3.18586 -9.87552,-1.68676 -14.76758,-1.39453 -5.20813,0.31111 -11.62817,3.42707 -15.58593,-1.19336 -5.49863,-6.4193 6.3765,-7.36337 10.94336,-6.17383 6.28453,1.63695 14.59407,2.96543 19.66992,-2.07813 5.07678,-5.04448 -4.00871,-10.23332 -8.94727,-8.86718 -4.46995,1.23651 -16.09524,-0.45045 -12.29297,-5.85352 3.15676,-4.4858 10.68116,-1.61231 16.0586,-1.69531 5.4176,-0.0837 10.66858,-4.02509 7.05664,-9.84961 -2.97262,-4.79358 -8.27388,-0.71687 -11.16406,-5.16992 -2.2692,-3.49628 -0.8919,-10.01319 3.84179,-9.21875 6.44187,1.08112 9.77362,-6.53116 15.43555,-7.46289 1.28197,-0.21096 2.56607,-0.27729 3.85156,-0.24414 z m -48.36719,69.95898 c 2.90792,0.10195 5.4998,1.51716 3.83594,4.6211 -1.30497,2.43441 -6.08242,2.73243 -8.24023,0.68945 -3.59454,-3.40324 0.66554,-5.44162 4.40429,-5.31055 z m -205.98828,12.0957 c 0.81102,-0.0467 1.70519,0.18527 2.65235,0.78516 6.6714,4.22538 13.16255,9.17851 21.08398,10.68359 7.26583,1.38052 14.97764,2.10815 22.23047,0.54493 4.54075,-0.97868 14.16182,6.48787 7.88672,8.5039 -13.23514,4.25211 -27.79536,-0.75734 -41.03711,-4.84375 -4.82675,-1.48954 -10.0557,-1.97253 -14.48047,-4.42383 -4.70951,-2.60904 -2.7154,-10.99785 1.66406,-11.25 z m 108.71875,8.02149 c 3.71749,-0.0873 12.33026,2.47375 7.00977,5.19531 -2.24572,1.14874 -4.88294,1.14765 -7.25391,1.96875 -6.82307,2.36292 -6.22044,-6.23453 -0.42969,-7.11133 0.19875,-0.0301 0.426,-0.0469 0.67383,-0.0527 z m -59.48242,33.56641 c -3e-5,3.67505 -2.97925,6.65427 -6.6543,6.65429 -3.67505,-3e-5 -4.65426,-2.97924 -4.65429,-6.65429 0.49485,-6.4782 11.1939,-3.66218 11.30859,0 z m 242.00195,22.75585 c 3.07814,0.0116 6.04547,0.54668 8.68164,2.53125 6.73735,5.07204 0.99096,16.47594 -7.2246,16.3086 -8.89785,-0.18123 -17.78851,1.76192 -26.67188,1.08008 -6.83961,-0.52497 -14.51832,1.62456 -20.49023,-2.02735 -6.20364,-3.79361 4.45477,-7.8957 7.62695,-10.47851 7.4153,-6.0376 17.11401,-7.41281 26.10742,-6.83008 3.86965,0.25073 8.0131,-0.59884 11.9707,-0.58399 z m -41.17968,33.22071 c 7.82533,0.0163 15.73626,2.38706 23.61328,2.52734 4.62526,0.0824 9.27574,1.09393 12.64062,4.23242 3.34035,3.11562 6.75942,6.02162 10.47461,8.69727 6.2857,4.5269 10.97203,10.73611 15.95313,16.59765 5.87277,6.91085 13.4645,12.43324 21.44922,16.67774 4.10153,2.18028 7.82521,11.38938 1.35546,11.78711 -44.35243,-0.4805 -97.88044,-2.37303 -145.28906,-0.56836 -6.52454,1.82509 -13.63885,-8.87463 -6.28515,-10.54688 12.60693,-2.86685 25.80275,-2.29844 38.73242,-1.89257 5.14304,0.16144 14.60758,0.0155 13.78906,-6.70704 -0.7063,-5.80082 -8.81354,-6.5781 -13.54687,-5.05078 -4.38433,1.41471 -16.61409,-0.58433 -11.60547,-5.76757 4.85171,-5.02086 13.48109,-1.84589 20.20117,-1.22071 6.61206,0.61513 8.93882,-7.85668 8.16016,-13.30859 -0.75124,-5.25977 -1.19402,-13.99751 4.95507,-15.03711 1.79524,-0.30351 3.5965,-0.42369 5.40235,-0.41992 z m -99.24024,70.07226 c 4.44787,0.0306 8.90051,0.17326 13.32617,0.22266 64.11653,0.71563 125.13751,1.63614 198.54883,4.06641 8.79254,0.29108 18.09063,-1.09007 25.72266,3.23437 5.42116,3.07173 4.46642,12.24297 0.49609,16.83398 -5.22861,6.04602 -14.00976,4.40027 -21.15429,4.94727 -5.64461,0.43216 -11.27088,1.17452 -16.92383,1.0625 -67.0455,-1.61718 -137.43609,-5.69122 -207.64844,-4.53516 -8.51932,0.91807 -19.18195,-0.94469 -23.33008,-9.23242 -3.14509,-6.28371 2.79636,-13.57273 8.9336,-14.86719 7.21858,-1.52253 14.61617,-1.78348 22.02929,-1.73242 z"
       id="path4144"
       inkscape:connector-curvature="0"
       sodipodi:nodetypes="ccssssssssccsssssssssssssssssssscccssssssccsssscssccsssssssssscccscssccssssssssccssssssssssscccscssccsscsccsccssscssssssssssssssssssssssssssssssssssssssssssssssssssssssssscsssscssscsssssscscssssssssssssssssscssccccsssssccsssssssssssssssscssscsscssssssssssssssssssssssssssssssssssscssssssssccsssssccscsssscsssssssssssssssssssssssssssssssssssssssssssssssccsccccsccsssssssssssccsssssssssssssssccssssss" />
  </g>
</svg>
